<?xml version="1.0" encoding="utf-8"?>
<!-- Generator: Adobe Illustrator 16.0.0, SVG Export Plug-In . SVG Version: 6.00 Build 0)  -->
<!DOCTYPE svg PUBLIC "-//W3C//DTD SVG 1.1//EN" "http://www.w3.org/Graphics/SVG/1.1/DTD/svg11.dtd">
<svg version="1.1" id="Layer_1" xmlns="http://www.w3.org/2000/svg" xmlns:xlink="http://www.w3.org/1999/xlink" x="0px" y="0px"
	 width="24px" height="24px" viewBox="0 0 24 24" enable-background="new 0 0 24 24" xml:space="preserve">
<g>
	<path fill="#0F054C" d="M4.25,23.5c-2.067,0-3.749-1.682-3.749-3.749V4.25C0.5,2.182,2.182,0.5,4.25,0.5h15.499
		c2.067,0,3.75,1.682,3.75,3.75v15.501c0,2.067-1.683,3.749-3.75,3.749H4.25z"/>
	<path fill="#91B9E8" d="M19.748,1c1.792,0,3.25,1.458,3.25,3.25v15.501c0,1.792-1.458,3.249-3.25,3.249H4.25
		C2.458,23,1,21.543,1,19.751V4.25C1,2.458,2.458,1,4.25,1H19.748 M19.748,0H4.25C1.9,0,0,1.9,0,4.25v15.501
		C0,22.102,1.9,24,4.25,24h15.499c2.351,0,4.25-1.898,4.25-4.249V4.25C23.998,1.9,22.1,0,19.748,0L19.748,0z"/>
</g>
<g id="Ps">
	<path fill="#91B9E8" d="M5.4,16.408V6.119c0-0.07,0.03-0.11,0.1-0.11c0.17,0,0.33,0,0.56-0.01c0.24-0.01,0.49-0.01,0.76-0.02
		s0.56-0.01,0.87-0.02s0.61-0.01,0.91-0.01c0.82,0,1.5,0.1,2.06,0.31c0.5,0.17,0.96,0.45,1.34,0.82c0.32,0.32,0.57,0.71,0.73,1.14
		c0.148,0.42,0.229,0.85,0.229,1.3c0,0.859-0.2,1.57-0.6,2.13s-0.96,0.98-1.61,1.219c-0.68,0.251-1.43,0.341-2.249,0.341
		c-0.24,0-0.4,0-0.501-0.012c-0.1-0.008-0.239-0.008-0.43-0.008v3.209c0.01,0.068-0.04,0.129-0.11,0.14c-0.01,0-0.02,0-0.04,0h-1.9
		C5.439,16.538,5.4,16.498,5.4,16.408z M7.58,7.939v3.36c0.14,0.01,0.27,0.02,0.39,0.02H8.5c0.39,0,0.78-0.06,1.149-0.18
		c0.32-0.09,0.6-0.28,0.82-0.529c0.21-0.25,0.31-0.59,0.31-1.03c0.01-0.31-0.07-0.62-0.23-0.89c-0.17-0.261-0.41-0.46-0.7-0.57
		c-0.37-0.15-0.77-0.21-1.18-0.2c-0.26,0-0.49,0-0.679,0.011C7.79,7.919,7.65,7.93,7.58,7.939L7.58,7.939z"/>
	<path fill="#91B9E8" d="M19.197,10.689c-0.299-0.16-0.619-0.27-0.959-0.34c-0.37-0.08-0.739-0.129-1.119-0.129
		c-0.2-0.011-0.41,0.02-0.602,0.069c-0.129,0.031-0.238,0.101-0.31,0.201c-0.05,0.08-0.08,0.179-0.08,0.271
		c0,0.09,0.039,0.18,0.101,0.26c0.09,0.11,0.209,0.201,0.34,0.27c0.229,0.12,0.471,0.23,0.709,0.33
		c0.541,0.18,1.062,0.43,1.541,0.73c0.33,0.21,0.6,0.489,0.789,0.83c0.16,0.32,0.24,0.67,0.229,1.029
		c0.011,0.471-0.13,0.939-0.39,1.33c-0.28,0.4-0.67,0.71-1.12,0.891c-0.489,0.209-1.091,0.319-1.81,0.319
		c-0.461,0-0.91-0.04-1.36-0.13c-0.351-0.061-0.699-0.17-1.021-0.32c-0.068-0.039-0.119-0.109-0.109-0.189V14.37
		c0-0.029,0.011-0.07,0.041-0.091c0.029-0.02,0.06-0.01,0.089,0.012c0.391,0.229,0.801,0.391,1.239,0.488
		c0.381,0.101,0.781,0.15,1.181,0.15c0.38,0,0.649-0.051,0.83-0.141c0.159-0.068,0.271-0.239,0.271-0.42
		c0-0.141-0.08-0.27-0.24-0.398c-0.16-0.13-0.488-0.281-0.979-0.471c-0.51-0.182-0.979-0.421-1.419-0.721
		c-0.311-0.221-0.57-0.51-0.762-0.85c-0.158-0.32-0.238-0.67-0.229-1.02c0-0.43,0.12-0.84,0.34-1.209c0.25-0.4,0.62-0.72,1.051-0.92
		c0.47-0.239,1.061-0.35,1.771-0.35c0.409,0,0.829,0.03,1.239,0.09c0.3,0.04,0.59,0.12,0.859,0.229
		c0.039,0.011,0.08,0.05,0.101,0.09c0.01,0.041,0.021,0.08,0.021,0.12v1.63c0,0.04-0.021,0.08-0.051,0.1
		C19.288,10.709,19.238,10.709,19.197,10.689z"/>
</g>
</svg>
